<?xml version="1.0" encoding="UTF-8" standalone="no"?>
<svg width="128px" height="62px" viewBox="0 0 128 62" version="1.1" xmlns="http://www.w3.org/2000/svg" xmlns:xlink="http://www.w3.org/1999/xlink" xmlns:sketch="http://www.bohemiancoding.com/sketch/ns">
    <!-- Generator: Sketch 3.4.2 (15857) - http://www.bohemiancoding.com/sketch -->
    <title>Shape</title>
    <desc>Created with Sketch.</desc>
    <defs></defs>
    <g id="Page-1" stroke="none" stroke-width="1" fill="none" fill-rule="evenodd" sketch:type="MSPage">
        <g id="landing" sketch:type="MSArtboardGroup" transform="translate(-103.000000, -665.000000)" fill="#FAFAFA">
            <g id="loan" sketch:type="MSLayerGroup" transform="translate(90.000000, 665.000000)">
                <path d="M139.25861,26.0693162 C137.900659,24.5817312 134.048854,24.1106841 130.950468,24.5676127 C129.414109,24.7935099 106.910376,31.2033452 106.910376,31.2033452 C107.550847,33.1388742 108.604606,36.6800708 104.792589,40.3008448 C102.192204,42.4982092 98.1863775,43.1527979 92.983039,43.0539679 C87.7861181,42.9551378 82.1528047,42.1721984 77.8145501,41.6510944 C76.4052591,41.4816715 72.495696,40.9811036 72.495696,40.9811036 C72.495696,40.9811036 75.2475356,39.7540707 78.9812582,39.630854 C83.6403896,39.4832506 87.3060864,39.5140548 89.4200229,39.630854 C91.732903,39.7604882 95.0571868,40.0377258 96.4472252,40.0877826 C102.800586,40.3162469 104.311274,36.374596 104.342078,34.8087172 C104.421656,30.3857511 101.832822,28.9161353 93.8044837,28.2692476 C88.643501,27.8533913 83.0987496,27.5209629 79.2353927,27.0511992 C71.7872,26.137342 66.4375417,24.1119676 63.7088052,23.8629672 C61.8310341,23.6871267 56.9665415,22.8066407 52.3446319,26.5044251 C38.3248819,37.7132941 13,44.7327954 13,44.746914 C16.8235682,56.9671867 37.9192936,61.5416066 37.9192936,61.5416066 C46.8871589,53.7109287 56.8253557,52.7444478 65.3260244,52.4441071 C66.7905062,52.3901998 81.0400039,52.3889162 94.2010874,53.9175734 C96.8476794,54.0998314 99.1143533,52.7251951 99.1143533,52.7251951 C118.857262,40.524175 135.695594,33.8435197 135.695594,33.8435197 C139.689869,32.391873 140.864278,30.6591382 140.802669,29.3307081 C140.68587,26.916431 139.274012,26.0872853 139.25861,26.0693162 L139.25861,26.0693162 Z M93.8198858,26.0218264 L107.313398,26.0218264 C108.80355,26.0218264 110.013897,24.9654999 110.013897,23.66274 C110.013897,22.3586966 108.804833,21.3036537 107.313398,21.3036537 L93.8198858,21.3036537 C92.3284503,21.3036537 91.12067,22.3586966 91.12067,23.66274 C91.12067,24.9654999 92.3284503,26.0218264 93.8198858,26.0218264 L93.8198858,26.0218264 Z M93.8198858,18.9214642 L107.313398,18.9214642 C108.80355,18.9214642 110.013897,17.8651377 110.013897,16.5623778 C110.013897,15.2583344 108.804833,14.204575 107.313398,14.204575 L93.8198858,14.204575 C92.3284503,14.204575 91.12067,15.2596179 91.12067,16.5623778 C91.12067,17.8638542 92.3284503,18.9214642 93.8198858,18.9214642 L93.8198858,18.9214642 Z M93.8198858,11.8185349 L107.313398,11.8185349 C108.80355,11.8185349 110.013897,10.7622085 110.013897,9.46073209 C110.013897,8.1566887 108.804833,7.10164573 107.313398,7.10164573 L93.8198858,7.10164573 C92.3284503,7.10164573 91.12067,8.1566887 91.12067,9.46073209 C91.12067,10.7622085 92.3284503,11.8185349 93.8198858,11.8185349 L93.8198858,11.8185349 Z M70.1468777,21.2882516 L83.6403896,21.2882516 C85.1318251,21.2882516 86.3408889,20.2319251 86.3408889,18.9291652 C86.3408889,17.6251218 85.1331086,16.5713624 83.6403896,16.5713624 L70.1468777,16.5713624 C68.6554422,16.5713624 67.4489454,17.6264053 67.4489454,18.9291652 C67.4489454,20.2319251 68.6567258,21.2882516 70.1468777,21.2882516 L70.1468777,21.2882516 Z M70.1468777,14.1866059 L83.6403896,14.1866059 C85.1318251,14.1866059 86.3408889,13.1302794 86.3408889,11.8275195 C86.3408889,10.5234761 85.1331086,9.46843313 83.6403896,9.46843313 L70.1468777,9.46843313 C68.6554422,9.46843313 67.4489454,10.5234761 67.4489454,11.8275195 C67.4489454,13.1302794 68.6567258,14.1866059 70.1468777,14.1866059 L70.1468777,14.1866059 Z M93.8198858,4.71817272 L107.313398,4.71817272 C108.80355,4.71817272 110.013897,3.66184624 110.013897,2.35908636 C110.013897,1.05504298 108.804833,-4.4408921e-15 107.313398,-4.4408921e-15 L93.8198858,-4.4408921e-15 C92.3284503,-4.4408921e-15 91.12067,1.05504298 91.12067,2.35908636 C91.12067,3.66056273 92.3284503,4.71817272 93.8198858,4.71817272 L93.8198858,4.71817272 Z" id="Shape" sketch:type="MSShapeGroup"></path>
            </g>
        </g>
    </g>
</svg>