<?xml version="1.0" encoding="UTF-8" standalone="no"?>
<svg width="84px" height="91px" viewBox="0 0 84 91" version="1.1" xmlns="http://www.w3.org/2000/svg" xmlns:xlink="http://www.w3.org/1999/xlink" xmlns:sketch="http://www.bohemiancoding.com/sketch/ns">
    <!-- Generator: Sketch 3.4.2 (15857) - http://www.bohemiancoding.com/sketch -->
    <title>Shape</title>
    <desc>Created with Sketch.</desc>
    <defs></defs>
    <g id="Page-1" stroke="none" stroke-width="1" fill="none" fill-rule="evenodd" sketch:type="MSPage">
        <g id="landing" sketch:type="MSArtboardGroup" transform="translate(-462.000000, -650.000000)" fill="#FAFAFA">
            <g id="credit" sketch:type="MSLayerGroup" transform="translate(416.000000, 650.000000)">
                <path d="M88,0 L130,21 L130,30.3333333 L46,30.3333333 L46,21 L88,0 L88,0 Z M106.666667,35 L125.333333,35 L125.333333,72.3333333 L106.666667,72.3333333 L106.666667,35 L106.666667,35 Z M46,91 L46,77 L130,77 L130,91 L46,91 L46,91 Z M78.6666667,35 L97.3333333,35 L97.3333333,72.3333333 L78.6666667,72.3333333 L78.6666667,35 L78.6666667,35 Z M50.6666667,35 L69.3333333,35 L69.3333333,72.3333333 L50.6666667,72.3333333 L50.6666667,35 L50.6666667,35 Z M50.6666667,81.6666667 L50.6666667,86.3333333 L125.333333,86.3333333 L125.333333,81.6666667 L50.6666667,81.6666667 L50.6666667,81.6666667 Z M55.3333333,39.6666667 L55.3333333,67.6666667 L64.6666667,67.6666667 L64.6666667,39.6666667 L55.3333333,39.6666667 L55.3333333,39.6666667 Z M83.3333333,39.6666667 L83.3333333,67.6666667 L92.6666667,67.6666667 L92.6666667,39.6666667 L83.3333333,39.6666667 L83.3333333,39.6666667 Z M111.333333,39.6666667 L111.333333,67.6666667 L120.666667,67.6666667 L120.666667,39.6666667 L111.333333,39.6666667 L111.333333,39.6666667 Z M50.6666667,25.6666667 L125.333333,25.6666667 L125.333333,23.8 L88,5.04 L50.6666667,23.8 L50.6666667,25.6666667 L50.6666667,25.6666667 Z" id="Shape" sketch:type="MSShapeGroup"></path>
            </g>
        </g>
    </g>
</svg>