<?xml version="1.0" encoding="UTF-8" standalone="no"?>
<svg width="75px" height="91px" viewBox="0 0 75 91" version="1.1" xmlns="http://www.w3.org/2000/svg" xmlns:xlink="http://www.w3.org/1999/xlink" xmlns:sketch="http://www.bohemiancoding.com/sketch/ns">
    <!-- Generator: Sketch 3.4.2 (15857) - http://www.bohemiancoding.com/sketch -->
    <title>Shape</title>
    <desc>Created with Sketch.</desc>
    <defs></defs>
    <g id="Page-1" stroke="none" stroke-width="1" fill="none" fill-rule="evenodd" sketch:type="MSPage">
        <g id="landing" sketch:type="MSArtboardGroup" transform="translate(-772.000000, -650.000000)" fill="#FAFAFA">
            <g id="tax" sketch:type="MSLayerGroup" transform="translate(772.000000, 650.000000)">
                <path d="M69.2,0.75 C68.2,-0.25 66.6,-0.25 65.7,0.75 L62.4,4.05 L59.2,0.85 C58.2,-0.15 56.6,-0.15 55.7,0.85 L52.4,4.05 L49.2,0.85 C48.3,-0.05 46.6,-0.05 45.7,0.85 L42.4,4.05 L39.2,0.85 C38.2,-0.15 36.6,-0.15 35.7,0.85 L32.4,4.05 L29.2,0.85 C28.7,0.35 28.1,0.05 27.4,0.05 C26.7,0.05 26.1,0.35 25.6,0.75 L22.4,4.05 L19.2,0.85 C18.2,-0.15 16.6,-0.15 15.7,0.85 L12.4,4.05 L9.2,0.85 C8.2,-0.15 6.6,-0.15 5.7,0.85 L0.7,5.85 C0.2,6.35 0,6.95 0,7.65 L0,82.65 C0,83.35 0.3,83.95 0.7,84.45 L5.7,89.45 C6.7,90.45 8.3,90.45 9.2,89.45 L12.4,86.05 L15.6,89.25 C16.6,90.25 18.2,90.25 19.1,89.25 L22.4,86.05 L25.6,89.25 C26.5,90.15 28.2,90.15 29.1,89.25 L32.4,86.05 L35.6,89.25 C36.6,90.25 38.2,90.25 39.1,89.25 L42.4,86.05 L45.6,89.25 C46.1,89.75 46.7,89.95 47.4,89.95 C48.1,89.95 48.7,89.65 49.2,89.25 L52.4,86.05 L55.6,89.25 C56.6,90.25 58.2,90.25 59.1,89.25 L62.4,86.05 L65.6,89.25 C66.1,89.75 66.7,89.95 67.4,89.95 C68.1,89.95 68.7,89.75 69.2,89.25 L74.2,84.25 C74.7,83.75 74.9,83.15 74.9,82.45 L74.9,7.45 C74.9,6.75 74.6,6.15 74.2,5.65 L69.2,0.75 Z M12.4,20.05 L47.4,20.05 C48.8,20.05 49.9,18.95 49.9,17.55 C49.9,16.15 48.8,15.05 47.4,15.05 L12.4,15.05 C11,15.05 9.9,16.15 9.9,17.55 C9.9,18.95 11,20.05 12.4,20.05 Z M12.4,30.05 L42.4,30.05 C43.8,30.05 44.9,28.95 44.9,27.55 C44.9,26.15 43.8,25.05 42.4,25.05 L12.4,25.05 C11,25.05 9.9,26.15 9.9,27.55 C9.9,28.95 11,30.05 12.4,30.05 Z M12.4,40.05 L37.4,40.05 C38.8,40.05 39.9,38.95 39.9,37.55 C39.9,36.15 38.8,35.05 37.4,35.05 L12.4,35.05 C11,35.05 9.9,36.15 9.9,37.55 C9.9,38.95 11,40.05 12.4,40.05 Z M62.4,35.05 L57.4,35.05 C56,35.05 54.9,36.15 54.9,37.55 C54.9,38.95 56,40.05 57.4,40.05 L62.4,40.05 C63.8,40.05 64.9,38.95 64.9,37.55 C64.9,36.15 63.8,35.05 62.4,35.05 Z M47.4,45.05 L12.4,45.05 C11,45.05 9.9,46.15 9.9,47.55 C9.9,48.95 11,50.05 12.4,50.05 L47.4,50.05 C48.8,50.05 49.9,48.95 49.9,47.55 C49.9,46.15 48.8,45.05 47.4,45.05 Z M62.4,45.05 L57.4,45.05 C56,45.05 54.9,46.15 54.9,47.55 C54.9,48.95 56,50.05 57.4,50.05 L62.4,50.05 C63.8,50.05 64.9,48.95 64.9,47.55 C64.9,46.15 63.8,45.05 62.4,45.05 Z M32.4,70.05 L12.4,70.05 C11,70.05 9.9,71.15 9.9,72.55 C9.9,73.95 11,75.05 12.4,75.05 L32.4,75.05 C33.8,75.05 34.9,73.95 34.9,72.55 C34.9,71.15 33.8,70.05 32.4,70.05 Z M62.4,70.05 L57.4,70.05 C56,70.05 54.9,71.15 54.9,72.55 C54.9,73.95 56,75.05 57.4,75.05 L62.4,75.05 C63.8,75.05 64.9,73.95 64.9,72.55 C64.9,71.15 63.8,70.05 62.4,70.05 Z M62.4,25.05 L57.4,25.05 C56,25.05 54.9,26.15 54.9,27.55 C54.9,28.95 56,30.05 57.4,30.05 L62.4,30.05 C63.8,30.05 64.9,28.95 64.9,27.55 C64.9,26.15 63.8,25.05 62.4,25.05 Z M62.4,15.05 L57.4,15.05 C56,15.05 54.9,16.15 54.9,17.55 C54.9,18.95 56,20.05 57.4,20.05 L62.4,20.05 C63.8,20.05 64.9,18.95 64.9,17.55 C64.9,16.15 63.8,15.05 62.4,15.05 Z M14.2,61.85 C14.7,61.35 14.9,60.75 14.9,60.05 C14.9,59.35 14.6,58.75 14.2,58.25 C13.3,57.35 11.6,57.35 10.7,58.25 C10.2,58.75 10,59.35 10,60.05 C10,60.75 10.3,61.35 10.7,61.85 C11.2,62.35 11.8,62.55 12.5,62.55 C13.1,62.55 13.7,62.25 14.2,61.85 Z M24.2,61.85 C24.7,61.35 24.9,60.75 24.9,60.05 C24.9,59.35 24.6,58.75 24.2,58.25 C23.3,57.35 21.6,57.35 20.7,58.25 C20.2,58.75 20,59.35 20,60.05 C20,60.75 20.3,61.35 20.7,61.85 C21.2,62.35 21.8,62.55 22.5,62.55 C23.1,62.55 23.7,62.25 24.2,61.85 Z M30.6,58.25 C30.1,58.75 29.9,59.35 29.9,60.05 C29.9,60.75 30.2,61.35 30.6,61.85 C31.1,62.35 31.7,62.55 32.4,62.55 C33.1,62.55 33.7,62.25 34.2,61.85 C34.7,61.35 34.9,60.75 34.9,60.05 C34.9,59.35 34.6,58.75 34.2,58.25 C33.2,57.35 31.6,57.35 30.6,58.25 Z M40.6,58.25 C40.1,58.75 39.9,59.35 39.9,60.05 C39.9,60.75 40.2,61.35 40.6,61.85 C41.1,62.35 41.7,62.55 42.4,62.55 C43.1,62.55 43.7,62.25 44.2,61.85 C44.7,61.35 44.9,60.75 44.9,60.05 C44.9,59.35 44.6,58.75 44.2,58.25 C43.2,57.35 41.6,57.35 40.6,58.25 Z M54.2,58.25 C53.3,57.35 51.6,57.35 50.7,58.25 C50.2,58.75 50,59.35 50,60.05 C50,60.75 50.3,61.35 50.7,61.85 C51.2,62.35 51.8,62.55 52.5,62.55 C53.2,62.55 53.8,62.25 54.3,61.85 C54.8,61.35 55,60.75 55,60.05 C54.9,59.35 54.6,58.75 54.2,58.25 Z M60.6,58.25 C60.1,58.75 59.9,59.35 59.9,60.05 C59.9,60.75 60.2,61.35 60.6,61.85 C61.1,62.35 61.7,62.55 62.4,62.55 C63.1,62.55 63.7,62.25 64.2,61.85 C64.7,61.35 64.9,60.75 64.9,60.05 C64.9,59.35 64.6,58.75 64.2,58.25 C63.2,57.35 61.6,57.35 60.6,58.25 Z M69.9,81.55 L67.4,84.05 L64.2,80.85 C63.7,80.25 63,80.05 62.4,80.05 C61.8,80.05 61.1,80.25 60.6,80.75 L57.4,84.05 L54.2,80.85 C53.2,79.85 51.6,79.85 50.7,80.85 L47.4,84.05 L44.2,80.85 C43.7,80.35 43.1,80.05 42.4,80.05 C41.7,80.05 41.1,80.35 40.6,80.75 L37.4,84.05 L34.2,80.85 C33.3,79.95 31.6,79.95 30.7,80.85 L27.4,84.05 L24.2,80.85 C23.2,79.85 21.6,79.85 20.7,80.85 L17.4,84.05 L14.2,80.85 C13.2,79.85 11.6,79.85 10.7,80.85 L7.4,84.05 L4.9,81.55 L4.9,8.55 L7.4,6.05 L10.6,9.25 C11.6,10.25 13.2,10.25 14.1,9.25 L17.4,6.05 L20.6,9.25 C21.6,10.25 23.2,10.25 24.1,9.25 L27.4,6.05 L30.6,9.25 C31.1,9.75 31.7,9.95 32.4,9.95 C33.1,9.95 33.7,9.65 34.2,9.25 L37.4,6.05 L40.6,9.25 C41.5,10.15 43.2,10.15 44.1,9.25 L47.4,6.05 L50.6,9.25 C51.6,10.25 53.2,10.25 54.1,9.25 L57.4,6.05 L60.6,9.25 C61.6,10.25 63.2,10.25 64.1,9.25 L67.4,6.05 L69.9,8.55 L69.9,81.55 L69.9,81.55 Z" id="Shape" sketch:type="MSShapeGroup"></path>
            </g>
        </g>
    </g>
</svg>