<?xml version="1.0" encoding="UTF-8" standalone="no"?>
<svg width="155px" height="207px" viewBox="0 0 155 207" version="1.1" xmlns="http://www.w3.org/2000/svg" xmlns:xlink="http://www.w3.org/1999/xlink" xmlns:sketch="http://www.bohemiancoding.com/sketch/ns">
    <!-- Generator: Sketch 3.4.2 (15857) - http://www.bohemiancoding.com/sketch -->
    <title>Shape</title>
    <desc>Created with Sketch.</desc>
    <defs></defs>
    <g id="Page-1" stroke="none" stroke-width="1" fill="none" fill-rule="evenodd" sketch:type="MSPage">
        <g id="landing" sketch:type="MSArtboardGroup" transform="translate(-545.000000, -256.000000)" fill="#FAFAFA">
            <g id="ConnectEd-+-pairing-schools-and--+-Shape" sketch:type="MSLayerGroup" transform="translate(451.000000, 256.000000)">
                <path d="M197.5,109.954343 L186.2049,121.249443 C191.967706,124.01559 196.116927,130.008909 196.116927,137.154788 C196.116927,146.836303 188.27951,154.673719 178.597996,154.673719 C171.682628,154.673719 165.68931,150.524499 162.69265,144.761693 L149.092428,158.361915 L148.861915,158.592428 L197.269488,207 L215.94098,188.328508 C208.564588,188.328508 202.340757,182.335189 202.340757,174.728285 C202.340757,167.121381 208.334076,161.128062 215.94098,161.128062 C223.317372,161.128062 229.541203,167.121381 229.541203,174.728285 L245.907572,158.361915 L227.23608,139.920935 L225.853007,138.537862 L226.775056,138.537862 C234.151448,138.537862 240.375278,132.544543 240.375278,124.937639 C240.375278,121.479955 238.992205,118.483296 236.917595,115.947661 C234.612472,113.873051 231.385301,112.489978 227.927617,112.489978 C220.551225,112.489978 214.327394,118.483296 214.327394,126.0902 L214.327394,127.012249 L213.405345,126.0902 L197.5,109.954343 Z M163.845212,102.116927 C154.163697,102.116927 146.326281,94.27951 146.326281,84.5979955 C146.326281,77.6826281 150.244989,71.6893096 156.007795,68.9231626 L142.407572,55.3229399 L94,103.730512 L145.173719,154.904232 L167.072383,133.005568 C166.380846,134.388641 166.150334,136.002227 166.150334,137.615813 C166.150334,144.300668 171.682628,149.832962 178.367483,149.832962 C185.052339,149.832962 190.584633,144.300668 190.584633,137.615813 C190.584633,130.930958 185.052339,125.398664 178.367483,125.398664 C176.753898,125.398664 175.140312,125.629176 173.757238,126.320713 L193.581292,106.496659 L179.750557,92.6659243 C176.753898,97.967706 170.760579,102.116927 163.845212,102.116927 Z M248.673719,51.1737194 L228.619154,31.1191537 L229.541203,31.1191537 C236.917595,31.1191537 243.141425,25.1258352 243.141425,17.518931 C243.141425,10.142539 237.148107,4.14922049 229.541203,4.14922049 C222.164811,4.14922049 215.94098,10.142539 215.94098,17.7494432 L215.94098,18.6714922 L197.269488,0 L148.861915,48.4075724 L147.24833,50.2516704 L146.326281,51.1737194 L168.224944,73.0723831 C166.841871,72.6113586 165.458797,72.3808463 164.075724,72.3808463 C157.390869,72.3808463 151.858575,77.9131403 151.858575,84.5979955 C151.858575,91.2828508 157.390869,96.8151448 164.075724,96.8151448 C170.760579,96.8151448 176.292873,91.2828508 176.292873,84.5979955 C176.292873,83.4454343 176.062361,82.5233853 175.831849,81.3708241 C175.831849,80.9097996 175.601336,80.6792873 175.601336,80.2182628 L176.753898,81.3708241 L197.961024,102.577951 L198.883073,101.655902 L200.727171,99.811804 L216.402004,84.136971 C209.025612,84.136971 202.801782,78.1436526 202.801782,70.5367483 C202.801782,62.9298441 208.7951,56.9365256 216.402004,56.9365256 C223.778396,56.9365256 230.002227,62.9298441 230.002227,70.5367483 L248.673719,51.1737194 Z" id="Shape" sketch:type="MSShapeGroup"></path>
            </g>
        </g>
    </g>
</svg>