<?xml version="1.0" encoding="UTF-8" standalone="no"?>
<svg width="27px" height="36px" viewBox="0 0 27 36" version="1.1" xmlns="http://www.w3.org/2000/svg" xmlns:xlink="http://www.w3.org/1999/xlink" xmlns:sketch="http://www.bohemiancoding.com/sketch/ns">
    <!-- Generator: Sketch 3.4.2 (15857) - http://www.bohemiancoding.com/sketch -->
    <title>Shape</title>
    <desc>Created with Sketch.</desc>
    <defs></defs>
    <g id="Page-1" stroke="none" stroke-width="1" fill="none" fill-rule="evenodd" sketch:type="MSPage">
        <g id="landing" sketch:type="MSArtboardGroup" transform="translate(-27.000000, -15.000000)" fill="#03A9F4">
            <g id="ConnectEd--+-Shape-+-Shape-+-Path" sketch:type="MSLayerGroup" transform="translate(27.000000, 15.000000)">
                <path d="M23.4120267,5.41202673 L23.5723831,5.41202673 C24.8552339,5.41202673 25.9376392,4.36971047 25.9376392,3.0467706 C25.9376392,1.76391982 24.8953229,0.721603563 23.5723831,0.721603563 C22.2895323,0.721603563 21.2071269,1.76391982 21.2071269,3.08685969 L21.2071269,3.24721604 L17.9599109,0 L9.54120267,8.41870824 L9.26057906,8.73942094 L9.10022272,8.89977728 L12.908686,12.7082405 C12.6681514,12.6280624 12.4276169,12.5879733 12.1870824,12.5879733 C11.0244989,12.5879733 10.0623608,13.5501114 10.0623608,14.7126949 C10.0623608,15.8752784 11.0244989,16.8374165 12.1870824,16.8374165 C13.3496659,16.8374165 14.311804,15.8752784 14.311804,14.7126949 C14.311804,14.5122494 14.2717149,14.3518931 14.2316258,14.1514477 C14.2316258,14.0712695 14.1915367,14.0311804 14.1915367,13.9510022 L14.3919822,14.1514477 L18.0801782,17.8396437 L18.2405345,17.6792873 L18.5612472,17.3585746 L21.2873051,14.6325167 C20.0044543,14.6325167 18.922049,13.5902004 18.922049,12.2672606 C18.922049,10.9443207 19.9643653,9.90200445 21.2873051,9.90200445 C22.5701559,9.90200445 23.6525612,10.9443207 23.6525612,12.2672606 L26.8997773,8.89977728 L23.4120267,5.41202673 Z M12.1469933,17.7594655 C10.4632517,17.7594655 9.10022272,16.3964365 9.10022272,14.7126949 C9.10022272,13.5100223 9.78173719,12.467706 10.7839644,11.986637 L8.41870824,9.62138085 L0,18.0400891 L8.89977728,26.9398664 L12.7082405,23.1314031 C12.5879733,23.3719376 12.5478842,23.6525612 12.5478842,23.9331849 C12.5478842,25.0957684 13.5100223,26.0579065 14.6726058,26.0579065 C15.8351893,26.0579065 16.7973274,25.0957684 16.7973274,23.9331849 C16.7973274,22.7706013 15.8351893,21.8084633 14.6726058,21.8084633 C14.3919822,21.8084633 14.1113586,21.8485523 13.8708241,21.9688196 L17.3184855,18.5211581 L14.9131403,16.1158129 C14.3919822,17.0378619 13.3496659,17.7594655 12.1469933,17.7594655 Z M18,19.1224944 L16.0356347,21.0868597 C17.0378619,21.5679287 17.7594655,22.610245 17.7594655,23.8530067 C17.7594655,25.5367483 16.3964365,26.8997773 14.7126949,26.8997773 C13.5100223,26.8997773 12.467706,26.1781737 11.9465479,25.1759465 L9.58129176,27.5412027 L9.54120267,27.5812918 L17.9599109,36 L21.2071269,32.752784 C19.9242762,32.752784 18.8418708,31.7104677 18.8418708,30.3875278 C18.8418708,29.064588 19.8841871,28.0222717 21.2071269,28.0222717 C22.4899777,28.0222717 23.5723831,29.064588 23.5723831,30.3875278 L26.4187082,27.5412027 L23.1714922,24.3340757 L22.9309577,24.0935412 L23.091314,24.0935412 C24.3741648,24.0935412 25.4565702,23.0512249 25.4565702,21.7282851 C25.4565702,21.1269488 25.2160356,20.6057906 24.8552339,20.1648107 C24.454343,19.8040089 23.8930958,19.5634744 23.2917595,19.5634744 C22.0089087,19.5634744 20.9265033,20.6057906 20.9265033,21.9287305 L20.9265033,22.0890869 L20.766147,21.9287305 L18,19.1224944 Z" id="Shape" sketch:type="MSShapeGroup"></path>
            </g>
        </g>
    </g>
</svg>