<?xml version="1.0" encoding="utf-8"?>
<!-- Generator: Adobe Illustrator 16.0.0, SVG Export Plug-In . SVG Version: 6.00 Build 0)  -->
<!DOCTYPE svg PUBLIC "-//W3C//DTD SVG 1.1//EN" "http://www.w3.org/Graphics/SVG/1.1/DTD/svg11.dtd">
<svg version="1.1" id="Layer_1" xmlns:sketch="http://www.bohemiancoding.com/sketch/ns"
	 xmlns="http://www.w3.org/2000/svg" xmlns:xlink="http://www.w3.org/1999/xlink" x="0px" y="0px" width="1450px" height="481px"
	 viewBox="0 0 1450 481" enable-background="new 0 0 1450 481" xml:space="preserve">
<filter  width="200%" height="200%" id="filter-1" filterUnits="objectBoundingBox" y="-50%" x="-50%">
	<feOffset  result="shadowOffsetOuter1" in="SourceAlpha" dy="2" dx="0"></feOffset>
	<feGaussianBlur  stdDeviation="2" result="shadowBlurOuter1" in="shadowOffsetOuter1"></feGaussianBlur>
	
		<feColorMatrix  type="matrix" values="0 0 0 0 0   0 0 0 0 0   0 0 0 0 0  0 0 0 0.35 0" result="shadowMatrixOuter1" in="shadowBlurOuter1">
		</feColorMatrix>
	<feMerge>
		<feMergeNode  in="shadowMatrixOuter1"></feMergeNode>
		<feMergeNode  in="SourceGraphic"></feMergeNode>
	</feMerge>
</filter>
<title>Rectangle 26 Copy</title>
<desc>Created with Sketch.</desc>
<g id="Page-2" sketch:type="MSPage">
	<g id="Rectangle-26-Copy" sketch:type="MSShapeGroup" filter="url(#filter-1)">
		<path fill="#FFFFFF" d="M84.156,327.748C38.839,332.873,4,363.717,4,401c0,40.869,46.97,74,98.608,74H1339.25
			c1.993,0,3.957-0.127,5.883-0.373c56.572-4.09,100.867-41.339,100.867-86.686c0-45.348-44.297-82.598-100.871-86.686
			c-1.925-0.246-3.887-0.373-5.879-0.373h-26.865c5.564-12.266,8.54-25.199,8.54-38.562c0-78.737-103.296-142.566-230.72-142.566
			c-47.456,0-91.566,8.854-128.24,24.034C936.303,124.219,899.883,112,859.486,112c-30.055,0-57.909,6.764-80.77,18.286
			C737.927,54.461,650.046,2,548.212,2C428.885,2,328.717,74.033,301.023,171.282c-2.488-0.073-4.989-0.11-7.502-0.11
			c-99.176,0-179.572,57.551-179.572,128.543c0,0.919,0.014,1.836,0.04,2.752C100.7,306.051,89.794,315.439,84.156,327.748z"/>
	</g>
</g>
</svg>
