<?xml version="1.0" encoding="UTF-8" standalone="no"?>
<svg width="879px" height="368px" viewBox="0 0 879 368" version="1.1" xmlns="http://www.w3.org/2000/svg" xmlns:xlink="http://www.w3.org/1999/xlink" xmlns:sketch="http://www.bohemiancoding.com/sketch/ns">
    <!-- Generator: Sketch 3.4.2 (15857) - http://www.bohemiancoding.com/sketch -->
    <title>Oval 32</title>
    <desc>Created with Sketch.</desc>
    <defs>
        <filter x="-50%" y="-50%" width="200%" height="200%" filterUnits="objectBoundingBox" id="filter-1">
            <feOffset dx="0" dy="2" in="SourceAlpha" result="shadowOffsetOuter1"></feOffset>
            <feGaussianBlur stdDeviation="2" in="shadowOffsetOuter1" result="shadowBlurOuter1"></feGaussianBlur>
            <feColorMatrix values="0 0 0 0 0   0 0 0 0 0   0 0 0 0 0  0 0 0 0.35 0" in="shadowBlurOuter1" type="matrix" result="shadowMatrixOuter1"></feColorMatrix>
            <feMerge>
                <feMergeNode in="shadowMatrixOuter1"></feMergeNode>
                <feMergeNode in="SourceGraphic"></feMergeNode>
            </feMerge>
        </filter>
    </defs>
    <g id="Page-2" stroke="none" stroke-width="1" fill="none" fill-rule="evenodd" sketch:type="MSPage">
        <path d="M800.781989,174.37619 C803.459548,166.790735 804.867532,158.927188 804.867532,150.867925 C804.867532,88.0325087 719.278913,37.0943396 613.7,37.0943396 C607.043612,37.0943396 600.466683,37.2968122 593.985652,37.6919736 C573.879655,16.1275966 540.304132,2 502.27987,2 C462.60366,2 427.771132,17.3817969 408.030606,40.5441011 C373.0775,16.9416778 321.338144,2 263.603247,2 C158.336698,2 73.0012987,51.6710504 73.0012987,112.943396 C73.0012987,138.141674 87.4338102,161.37786 111.749738,180.00407 C47.4168669,193.904735 4,220.262635 4,250.490566 C4,295.194369 98.957788,331.433962 216.094156,331.433962 C262.294262,331.433962 305.044232,325.796473 339.87866,316.225667 C376.479457,343.965669 435.840205,362 502.845455,362 C591.940975,362 667.520649,330.114435 694.048995,285.923466 C711.715017,291.111186 732.167052,294.075472 753.964935,294.075472 C820.810756,294.075472 875,266.198862 875,231.811321 C875,205.962274 844.380373,183.792229 800.781989,174.37619 L800.781989,174.37619 Z" id="Oval-32" fill="#FFFFFF" filter="url(#filter-1)" sketch:type="MSShapeGroup"></path>
    </g>
</svg>