<?xml version="1.0" encoding="UTF-8" standalone="no"?>
<svg width="1507px" height="750px" viewBox="0 0 1507 750" version="1.1" xmlns="http://www.w3.org/2000/svg" xmlns:xlink="http://www.w3.org/1999/xlink" xmlns:sketch="http://www.bohemiancoding.com/sketch/ns">
    <!-- Generator: Sketch 3.4.2 (15857) - http://www.bohemiancoding.com/sketch -->
    <title>Page 1</title>
    <desc>Created with Sketch.</desc>
    <defs></defs>
    <g id="Page-2" stroke="none" stroke-width="1" fill="none" fill-rule="evenodd" sketch:type="MSPage">
        <g id="A4" sketch:type="MSArtboardGroup">
            <g id="Page-1" sketch:type="MSLayerGroup" transform="translate(-302.000000, -302.000000)">
                <g id="Oval-28-+-Fill-9" sketch:type="MSShapeGroup">
                    <circle id="Oval-28" fill="#2B82AD" transform="translate(1056.033921, 1055.033921) rotate(8.000000) translate(-1056.033921, -1055.033921) " cx="1056.03392" cy="1055.03392" r="753.5"></circle>
                    <path d="M1724.40148,1086.82514 C1731.63335,1100.47157 1734.31746,1114.37411 1738.49972,1127.71631 C1742.61536,1140.84862 1746.41689,1154.08684 1752.73121,1166.36998 C1754.4559,1169.72623 1756.22627,1173.91817 1760.63887,1173.82767 C1765.67586,1173.72176 1766.72475,1168.82892 1768.41517,1165.1434 C1772.9991,1155.15167 1772.0035,1144.72669 1771.24586,1134.09376 C1767.78317,1085.41178 1768.81874,1036.63352 1768.82445,987.882221 C1768.82636,974.726802 1768.84349,961.569458 1769.08906,948.415966 C1769.1652,944.289493 1769.92855,940.16302 1770.55104,936.063505 C1770.83468,934.209192 1771.18875,931.906224 1773.51117,931.66938 C1775.75174,931.44409 1776.63883,933.58146 1777.55257,935.231664 C1782.2431,943.684867 1785.00906,952.933327 1787.58848,962.152903 C1793.96752,984.941892 1800.84722,1007.65578 1805.69384,1030.7933 C1809.64386,1049.65222 1807.48706,1069.17547 1806.50669,1088.32322 C1803.92918,1138.61497 1797.22652,1188.37141 1785.34029,1237.35956 C1750.86757,1379.43499 1681.549,1500.53147 1575.2906,1600.42176 C1493.17777,1677.61356 1399.50995,1734.39637 1293.87975,1771.51729 C1289.40814,1773.09048 1284.77281,1774.19767 1280.19269,1775.44351 C1278.15201,1776 1275.62399,1777.42876 1274.3676,1774.6213 C1273.22162,1772.0603 1275.62399,1770.49097 1277.24398,1769.15656 C1288.10225,1760.22004 1300.02465,1752.91832 1312.20975,1746.02097 C1314.68446,1744.61916 1317.82544,1743.59477 1319.35786,1741.44584 C1333.37995,1721.80322 1354.71767,1712.80315 1374.82566,1702.07586 C1386.04942,1696.0893 1397.35505,1690.3184 1407.38334,1682.33503 C1416.85006,1674.79647 1423.87443,1665.56149 1427.27621,1653.71738 C1428.72677,1648.67434 1429.02183,1643.92591 1426.73177,1638.80585 C1422.30966,1628.91811 1423.08633,1618.81085 1427.31619,1608.97702 C1433.88179,1593.72852 1445.85749,1582.34269 1455.12242,1569.03708 C1490.48034,1518.25238 1531.68048,1471.58261 1560.87826,1416.45771 C1570.64766,1398.01086 1577.49119,1378.38749 1581.77815,1357.89762 C1582.48059,1354.53752 1583.94067,1350.3398 1580.71593,1347.99254 C1576.87632,1345.19471 1573.31464,1348.43542 1570.64576,1350.93672 C1556.6979,1364.02089 1543.02417,1377.40738 1529.13914,1390.56087 C1522.42506,1396.91714 1515.51109,1403.13477 1506.98857,1406.95508 C1497.53517,1411.19516 1492.16505,1408.98462 1490.13388,1398.85425 C1488.92317,1392.81185 1486.102,1390.6456 1480.76805,1388.78358 C1436.5145,1373.33482 1405.51969,1343.00727 1387.91117,1299.63406 C1381.52641,1283.90417 1370.11799,1272.6512 1361.07197,1259.309 C1353.368,1247.9405 1345.42608,1236.73375 1338.01147,1225.17847 C1335.76519,1221.67588 1331.38305,1217.64183 1334.06145,1213.19764 C1339.48107,1204.20913 1350.3717,1199.7014 1357.84533,1202.28743 C1368.9663,1206.13469 1374.77616,1215.14631 1376.80923,1225.79658 C1381.57781,1250.74412 1397.78907,1267.54654 1415.05685,1283.73087 C1431.77257,1299.39914 1450.50994,1312.86457 1464.78522,1331.19397 C1469.24541,1336.91673 1472.63767,1342.60098 1471.92762,1350.30129 C1471.3908,1356.10492 1472.9137,1361.75259 1474.9639,1367.19036 C1479.18423,1378.39904 1486.71687,1381.50304 1497.68556,1376.45808 C1505.04116,1373.07872 1510.36369,1367.02092 1516.4591,1361.91433 C1552.4909,1331.71579 1577.33319,1293.29897 1599.78453,1252.2499 C1614.74321,1224.89734 1625.69857,1196.90164 1631.01349,1166.41041 C1633.93365,1149.6619 1629.83705,1141.82873 1615.13536,1133.77026 C1611.5337,1131.79657 1608.23662,1129.22595 1604.90338,1126.78819 C1595.95444,1120.25092 1595.41191,1120.40303 1591.86165,1131.42878 C1590.09699,1136.907 1588.22382,1142.36403 1586.78468,1147.93082 C1584.60694,1156.35707 1578.84086,1160.09458 1570.83802,1160.47392 C1548.82071,1161.51949 1529.6455,1154.02907 1513.6227,1139.03474 C1503.99797,1130.02505 1503.12421,1119.09751 1509.44234,1109.66419 C1512.72228,1104.76942 1515.65767,1103.02487 1520.70228,1107.6982 C1525.82874,1112.44663 1531.45204,1116.70596 1537.16291,1120.73808 C1541.82108,1124.02694 1546.73434,1127.08858 1551.87412,1129.50708 C1569.53023,1137.81394 1581.6982,1133.37167 1589.88949,1115.49286 C1591.91114,1111.0814 1592.78491,1108.78229 1598.39108,1111.74765 C1608.41366,1117.05064 1618.80555,1114.82854 1628.58256,1110.13595 C1645.58763,1101.97351 1659.2252,1089.49974 1669.98448,1074.16074 C1674.30571,1068.00087 1677.49428,1068.52463 1682.89296,1071.8077 C1692.6871,1077.75961 1700.70326,1086.31294 1711.11418,1091.28858 C1719.51678,1095.3053 1719.54343,1095.24753 1724.40148,1086.82514 M1031.20803,1808.16919 C953.547781,1805.15762 877.686456,1792.26215 804.162781,1766.244 C715.796549,1734.97485 636.179374,1688.47067 565.246532,1626.67756 C466.002991,1540.21612 393.802335,1434.27379 344.447073,1312.08553 C324.820708,1263.49405 314.230847,1212.48407 307.663344,1160.50553 C302.019098,1115.83449 300.610416,1070.99208 302.455028,1026.1227 C306.115697,937.092563 323.168362,850.781311 356.99957,768.234527 C366.721378,744.517419 380.713016,723.719457 400.916179,707.612157 C409.28451,700.940095 414.586104,691.614614 420.428326,682.909162 C429.135503,669.934746 440.509657,663.033543 456.193616,664.123409 C459.207053,664.333295 463.374086,662.750486 464.643804,666.522656 C465.736484,669.769148 462.475576,672.214608 460.343517,674.556087 C457.552804,677.619652 454.611704,680.558054 452.003739,683.771812 C450.309514,685.859118 449.439558,688.385451 452.298801,690.401511 C461.940657,697.198734 478.163342,689.787258 478.981901,677.935443 C479.667205,667.999559 480.162148,658.09641 483.961781,648.751673 C485.490391,644.992982 487.039941,641.276653 491.730471,646.134838 C494.157592,648.645767 498.010527,649.668239 500.119743,646.479513 C507.669516,635.072502 517.583591,644.249716 526.220333,643.340852 C530.404499,642.901825 528.77119,647.403781 526.431636,649.315861 C521.257585,653.546314 515.885558,657.534147 510.500205,661.489245 C505.074876,665.473226 500.062634,669.928969 496.040276,675.326311 C488.895975,684.911743 490.944275,698.309782 500.315816,705.222538 C503.911762,707.874033 504.800755,704.485049 505.714494,702.451659 C508.85357,695.456104 511.71091,688.32961 514.642491,681.241628 C520.494232,667.094547 527.964053,654.688171 542.273596,647.130352 C552.901529,641.515422 559.619419,631.298407 565.227495,620.740567 C569.268889,613.128833 573.196066,605.384235 576.306588,597.35658 C585.786636,572.882727 599.698321,551.986562 621.584288,537.090438 C624.451146,535.137921 626.906821,532.544194 629.469099,530.1565 C630.599851,529.101294 631.523109,527.815021 633.569505,525.440807 C622.012603,527.287418 613.766103,534.779767 602.757445,536.021753 C603.667377,529.112848 608.041906,525.831695 612.47735,523.162871 C628.085164,513.77192 638.517024,498.893126 651.153281,486.371217 C655.284146,482.275553 655.185157,476.778082 651.760537,472.268424 C648.354954,467.785722 644.07751,470.831957 640.612914,472.65161 C623.594515,481.597756 609.880806,495.209532 594.535692,506.526042 C585.841841,512.936227 577.72098,519.970294 566.487694,521.930513 C563.09734,522.521659 560.295205,526.197551 557.062851,528.198207 C553.980884,530.102585 551.622294,533.751519 546.236941,532.85806 C562.712808,516.673737 580.178559,502.297514 594.118799,485.011772 C607.069154,468.952611 621.765132,456.072548 639.131895,445.857458 C650.081541,439.418389 661.309116,433.445305 673.88065,430.693682 C676.408662,430.141046 679.060411,429.201373 680.600443,432.137851 C681.816859,434.456224 680.095982,436.316313 678.927157,438.239947 C674.5374,445.466569 666.764903,449.404337 661.973481,456.226592 C661.676515,456.563565 660.037495,456.188081 661.368128,457.391556 C661.518515,456.956379 661.668901,456.523128 661.819287,456.087952 C670.579765,456.525054 677.269101,451.006402 684.689427,447.738729 C700.891172,440.606459 716.118262,431.028729 734.025654,428.286733 C737.724396,427.720619 741.316534,427.029343 746.920804,429.309205 C728.274805,439.466528 714.311722,453.650195 696.126401,461.444857 C692.374358,463.052699 689.806369,462.794674 686.707269,460.343437 C682.747731,457.214404 678.744409,457.426216 676.777966,462.646406 C671.887555,475.6343 663.252716,485.325638 652.769458,494.090782 C647.795288,498.248064 640.445395,505.5209 645.048359,511.659582 C650.07583,518.366303 658.529825,512.483721 664.830821,509.350837 C672.854596,505.363004 679.770463,499.688382 684.868368,492.063169 C688.106433,487.218463 691.934621,483.041926 697.249539,480.477081 C697.696891,480.875672 698.136628,481.280039 698.574462,481.688258 C696.392909,487.592021 689.256222,490.412965 688.553784,499.647945 C734.48062,470.79152 774.01699,436.691797 810.739803,398.469453 C807.303761,395.438624 804.353144,396.694088 801.703299,396.370594 C798.845959,396.022068 796.068572,395.739011 793.058942,392.735139 C800.978018,389.644617 808.227019,388.972597 815.430333,392.42705 C820.651973,394.932202 819.071965,399.832749 818.177262,405.413019 C821.432459,403.239063 823.9224,401.665881 826.319063,399.95791 C833.065506,395.153641 839.187562,390.020101 845.290581,401.559975 C848.551489,407.725615 856.37348,405.990687 864.355376,406.337287 C853.403827,413.710252 843.948526,419.862413 834.74831,426.382355 C831.420775,428.741165 827.67825,431.442724 825.896458,434.918358 C819.873391,446.662341 809.572881,452.760586 798.800272,459.007099 C789.786612,464.238843 781.399244,470.749158 773.314552,477.413517 C757.710545,490.278176 741.017665,500.7821 721.850074,507.612057 C703.472487,514.158957 692.789348,529.898476 682.98378,545.682282 C674.229013,559.773522 666.092923,574.47709 665.563716,591.809045 C665.207738,603.41824 670.492199,606.88232 681.207699,602.50745 C688.909762,599.363013 695.536278,594.371964 702.362674,589.698633 C724.408545,574.606102 746.397307,559.342197 772.221872,551.308765 C785.545337,547.164962 798.87261,546.541081 812.346461,551.229817 C822.740249,554.846017 833.453846,555.142553 844.175057,552.350492 C853.742672,549.858819 855.275089,547.17459 852.351122,537.421634 C860.157885,538.070548 866.468399,534.502487 872.706575,530.530059 C888.763645,520.305341 903.254032,507.561992 920.940603,499.944481 C925.751062,497.87258 926.030894,492.115159 929.291802,488.610642 C937.802906,479.45846 947.480931,471.702309 957.021895,463.751677 C961.908498,459.67912 966.65804,455.412081 971.203895,450.956338 C973.846125,448.368387 977.931303,445.799691 976.888117,441.6116 C975.658375,436.678319 970.419602,437.375371 965.453046,436.454954 C972.972362,431.92989 969.248873,428.271328 965.451143,425.020985 C957.408331,418.12941 947.907343,413.613974 938.670959,408.667213 C935.396725,406.914955 931.477163,406.273744 928.922499,403.188998 C940.643113,389.619585 939.660843,385.708775 922.722396,378.305001 C918.073745,376.273536 913.356565,374.396116 908.738373,372.299183 C904.306736,370.285048 900.745055,367.772194 906.457831,361.906941 L889.951506,361.906941 C900.314836,357.089193 908.964904,353.877361 913.015816,343.560216 C908.93635,343.346479 905.351825,343.259829 901.788241,342.945963 C895.725198,342.412583 890.292255,340.331054 888.788392,333.730238 C887.341638,327.375894 891.837998,323.54018 896.385756,320.486244 C906.58347,313.642808 918.616278,313.454103 930.150337,311.938688 C966.248761,307.199888 1002.41572,303.069564 1038.82062,301.565702 C1065.07922,301.9874 1091.35875,301.144005 1117.56404,304.009237 C1152.75824,307.854578 1183.53984,323.022205 1213.12597,341.380483 C1215.16665,342.645576 1217.98211,344.38243 1217.21305,347.272694 C1216.26124,350.844605 1212.73763,349.964625 1209.9907,350.197618 C1204.94419,350.627017 1200.89328,347.838808 1196.54159,346.030708 C1190.80788,343.648792 1185.44727,339.880473 1178.53712,340.866359 C1187.80396,354.584041 1212.91086,361.982038 1229.0079,355.772111 C1233.16351,354.16812 1237.13828,352.42934 1241.71459,352.244487 C1256.16691,351.65334 1259.64864,354.830512 1259.21842,369.58607 C1259.08136,374.340275 1260.2064,377.107303 1264.85505,379.167651 C1269.03731,381.018113 1274.2304,384.299266 1272.57805,389.781332 C1271.1332,394.574048 1265.34999,394.104211 1261.04019,394.437333 C1251.27269,395.190227 1241.39288,393.869293 1231.69201,395.973929 C1229.9007,396.362892 1227.63158,396.262763 1226.9063,398.442496 C1226.02683,401.070884 1228.03896,402.655619 1229.72747,403.970775 C1250.1724,419.916328 1260.73751,443.93575 1277.10868,463.202892 C1280.38101,467.055936 1277.19434,468.12077 1274.27989,468.802418 C1269.67312,469.880731 1264.89312,470.317832 1260.38153,471.692681 C1251.20797,474.49437 1249.50994,479.751145 1255.39594,487.384061 C1261.90443,495.82186 1270.70489,501.631271 1279.20076,507.820017 C1286.56017,513.182699 1295.35491,516.47733 1301.46555,523.619228 L1301.58928,523.501769 C1283.18885,523.871476 1264.83221,522.900995 1246.74587,519.554373 C1226.063,515.726362 1215.05243,502.224343 1214.14441,480.839086 C1213.89693,474.981536 1212.96226,469.299212 1210.12395,464.194555 C1206.60415,457.869094 1200.4821,457.722752 1196.77384,463.980818 C1195.03012,466.924998 1193.61382,470.452622 1193.32637,473.828126 C1191.90056,490.543903 1198.76122,505.509347 1206.58892,519.003663 C1213.42293,530.784233 1228.01231,529.769463 1240.21835,531.034555 C1250.91671,532.143677 1261.80354,530.062148 1272.43909,532.617365 C1281.17482,534.714298 1282.92044,538.409446 1278.78577,546.27728 C1277.30856,549.088596 1275.31356,551.628408 1273.48989,554.245242 C1269.90727,559.386484 1266.33797,563.330029 1260.10741,556.964131 C1257.7926,554.59762 1254.04246,552.922383 1250.50743,555.186841 C1247.26366,557.262593 1247.91279,560.944262 1248.25735,563.992421 C1249.30434,573.20237 1251.18703,582.329519 1251.88185,591.556797 C1252.5386,600.302685 1250.18382,601.615917 1242.6645,597.683925 C1235.39266,593.882872 1229.29154,589.369362 1228.95651,579.778153 C1228.48441,566.272283 1226.96341,565.105394 1213.78272,565.538645 C1211.89432,565.600263 1210.00973,565.839032 1205.25639,566.235697 C1221.11548,575.928961 1217.95165,588.137004 1213.56951,600.712829 C1212.43495,603.965098 1212.32264,607.589 1211.81627,611.053081 C1211.67731,611.994679 1212.20652,613.500466 1211.74965,613.860546 C1200.11089,623.010801 1211.82008,628.922267 1215.50359,635.867758 C1192.93423,640.42363 1178.20969,629.010843 1171.84017,602.492046 C1178.54854,602.492046 1185.16934,602.615282 1191.78063,602.445832 C1195.62405,602.345703 1200.1147,601.885495 1201.55384,597.886109 C1203.07864,593.644103 1199.30185,590.992608 1196.31697,588.618394 C1181.58101,576.897517 1164.70348,569.875004 1146.52006,565.958417 C1140.91008,564.751092 1135.66941,563.42053 1130.76948,559.942971 C1121.13333,553.107237 1110.30932,553.894791 1099.75944,557.351169 C1080.65847,563.605384 1064.38059,574.513675 1051.07235,589.704409 C1048.49865,592.642812 1044.01181,595.637056 1048.65284,601.101792 C1050.59073,603.38358 1047.95421,607.074876 1046.70544,609.942033 C1040.60242,623.967804 1029.36913,633.480065 1018.02734,642.78244 C1005.48436,653.074552 991.679276,661.762674 980.37746,673.637596 C964.288028,690.538226 961.617244,714.806045 973.752848,734.714398 C977.940821,741.584792 983.914393,740.539214 989.615747,738.070647 C995.705441,735.432632 1001.29067,731.627727 1007.24521,728.629632 C1016.09135,724.17774 1018.54322,725.379289 1021.98116,734.500661 C1023.31561,738.04369 1025.53713,741.238192 1027.32083,744.609845 C1037.72033,764.275578 1030.76258,778.840506 1009.37917,782.18135 C1009.05746,784.440031 1011.04294,785.423992 1012.00617,786.956736 C1013.56144,789.429154 1015.21759,791.872688 1013.89457,794.961285 C1012.95418,797.154496 1010.95728,797.225742 1009.04604,796.777087 C1005.59286,795.968352 1003.52934,793.443944 1002.92779,790.130058 C1001.55528,782.57609 1002.96396,775.516991 1007.22046,769.025932 C1009.66281,765.301901 1012.03854,761.483518 1013.94597,757.464877 C1015.29944,754.616975 1016.33502,751.193331 1013.58428,748.474442 C1010.67364,745.593806 1006.9235,746.331295 1003.76158,747.638749 C991.764939,752.597064 984.019093,761.548987 981.77472,774.527254 C980.57734,781.459266 980.280375,788.886146 983.645982,795.313662 C987.468459,802.609605 984.0229,806.568554 978.671812,810.38116 C966.182134,819.279168 952.344691,825.76445 939.044069,833.210587 C933.257052,836.451302 927.671818,840.0598 921.466004,843.822342 C926.48586,822.013462 916.874462,804.047997 908.201551,785.974701 C903.640467,776.470143 898.415019,767.271748 893.12104,758.156152 C890.587317,753.794761 889.915337,750.625291 893.783502,746.356327 C898.603478,741.041785 901.58265,734.587311 898.135186,726.979428 C894.718181,719.442791 888.657042,717.095534 881.000666,717.946631 C877.654094,718.318264 875.607698,716.523643 873.902051,714.070481 C869.131569,707.209715 865.870661,709.851582 863.190358,715.799633 C861.745508,719.003763 860.569068,722.333055 859.088048,725.519854 C857.117797,729.759935 857.462353,732.388323 862.539319,734.206051 C870.169044,736.940344 870.509793,742.378123 866.375121,748.720914 C864.806535,751.127862 863.255081,753.571396 861.958713,756.134315 C857.595607,764.755042 858.633082,766.886636 869.064942,769.126061 C862.76585,777.436773 861.863532,784.907942 870.985699,792.076798 C875.626735,795.723806 874.067667,801.710369 870.420323,805.913864 C867.108017,809.732247 863.089466,812.959484 859.206073,816.232934 C850.116268,823.892807 850.042026,825.352381 859.114699,832.486576 C854.111975,836.453228 849.095925,840.292792 844.251202,844.344168 C842.617892,845.707464 840.485833,847.222879 841.224439,849.876299 C841.963046,852.535496 844.409203,852.926384 846.613599,852.814702 C861.079239,852.088766 875.674325,855.941809 890.04288,851.551535 C891.533418,851.095178 893.193378,850.879515 894.742928,850.995049 C899.210734,851.320468 905.515537,848.707485 907.165979,854.782623 C909.04676,861.708858 902.374557,863.915549 897.663088,865.964343 C889.374708,869.570915 880.66182,869.443828 871.617702,868.662051 C863.523492,867.964999 852.360641,863.601683 847.786232,871.885437 C843.769585,879.165975 853.459032,885.724429 857.473775,892.334872 C863.106599,901.612215 869.439956,910.367731 871.730016,921.403109 C876.917392,946.387236 856.529577,966.336026 832.745698,958.901443 C819.155725,954.651735 806.005489,948.93475 792.364119,944.879523 C779.529885,941.063066 771.04924,946.429598 771.0283,959.948947 C771.00736,973.816822 765.608682,985.452975 760.788706,997.499271 C752.08724,1019.25038 748.171485,1041.70048 749.07761,1065.1403 C749.27178,1070.14291 750.147447,1073.22765 755.810728,1072.71353 C756.726372,1072.6288 757.701027,1072.92919 758.61667,1073.16988 C765.414512,1074.9568 774.995452,1073.20069 777.154162,1081.91385 C779.103473,1089.77398 771.694568,1095.01535 766.68994,1100.1951 C755.163496,1112.12587 743.086905,1123.51747 731.747016,1135.61961 C723.831747,1144.06896 717.378461,1153.65825 717.083399,1166.02033 C717.011061,1169.02036 716.262937,1170.71485 712.891619,1170.9902 C683.94511,1173.35671 665.712198,1192.22719 649.085945,1213.55853 C637.511911,1228.40844 626.684097,1243.90919 613.016075,1256.96063 C609.99312,1259.84897 609.831312,1263.05887 610.590858,1266.60575 C615.043435,1287.38061 612.717206,1307.93788 604.571599,1326.92196 C592.432188,1355.21035 598.396242,1381.42876 609.81418,1407.52971 C621.371082,1433.95415 640.215057,1455.27201 657.798833,1477.65086 C689.92249,1518.53433 735.188768,1533.6076 782.183537,1545.86571 C801.575756,1550.92415 821.445785,1552.85741 841.517598,1552.42609 C847.569219,1552.29708 853.436188,1551.79836 859.242242,1549.73801 C869.670295,1546.03323 879.940347,1547.50436 889.684999,1552.28552 C897.663088,1556.19826 905.346115,1560.71947 913.240444,1564.80936 C924.420428,1570.60336 935.865017,1574.37361 948.843926,1571.62776 C955.287694,1570.26447 961.999872,1570.68424 968.61687,1572.52315 C994.188253,1579.63424 1003.24189,1606.33211 986.183513,1626.66986 C981.0818,1632.7527 981.942239,1634.64745 988.201355,1638.22899 C1000.99561,1645.54612 1009.89315,1656.75865 1015.92574,1670.25681 C1018.14156,1675.21513 1020.10229,1680.2909 1022.16772,1685.32239 C1027.92428,1699.34816 1034.51653,1712.79241 1047.91995,1722.10056 C1043.90711,1724.58261 1040.40063,1726.60059 1037.04645,1728.85157 C1019.92144,1740.34908 1017.96642,1755.05843 1031.52974,1770.85379 C1042.94958,1784.1517 1057.37715,1793.41556 1072.51477,1801.68391 C1075.2617,1803.18585 1078.07335,1804.5684 1080.6737,1808.16919 L1031.20803,1808.16919 L1031.20803,1808.16919 Z M1166.46173,1096.82737 C1167.50682,1091.10461 1168.2797,1086.12126 1169.34763,1081.20338 C1171.5368,1071.09613 1175.6886,1069.10702 1184.91927,1073.29704 C1187.52914,1074.48126 1190.27607,1078.64624 1193.04013,1075.43248 C1195.63477,1072.41321 1193.00587,1068.64104 1191.02039,1065.80854 C1185.47323,1057.89642 1178.3137,1051.42269 1171.06089,1045.25898 C1163.95276,1039.2185 1164.37346,1034.7435 1171.99747,1030.12793 C1173.34714,1029.30957 1174.47599,1028.12535 1175.77617,1027.21071 C1192.65179,1015.31654 1201.65974,1017.81784 1209.37133,1036.95019 C1213.42414,1047.00353 1217.67684,1056.9837 1219.31395,1067.93051 C1220.65791,1076.91324 1225.22661,1081.05126 1235.57852,1080.84523 C1270.26445,1080.15588 1301.03273,1067.6667 1330.64741,1051.08957 C1334.97816,1048.66529 1336.13366,1049.68198 1336.59624,1054.12425 C1339.54305,1082.38375 1338.28666,1110.42181 1332.65002,1138.2654 C1331.56877,1143.60497 1329.44242,1146.32386 1323.1319,1146.18907 C1313.10742,1145.97918 1304.04998,1150.1769 1295.54458,1155.45293 C1287.98339,1160.1436 1280.4774,1164.96327 1272.6497,1169.16484 C1263.13919,1174.26757 1253.08996,1176.21238 1242.35542,1172.98515 C1231.86264,1169.83108 1220.97011,1170.96716 1210.22034,1170.55124 C1199.59431,1170.13917 1190.10475,1167.75533 1181.77068,1159.6545 C1168.46244,1146.72245 1149.20919,1151.91568 1142.6474,1169.41516 C1139.84907,1176.88633 1138.03682,1184.74261 1135.15664,1192.17719 C1131.9357,1200.48983 1126.82067,1204.23119 1116.701,1202.51937 C1099.60645,1199.62526 1086.05646,1190.86396 1073.14418,1180.32345 C1059.61702,1169.28037 1045.60445,1160.34 1027.06124,1160.29186 C1017.64973,1160.26491 1008.50281,1156.12881 1000.9835,1149.7475 C993.995292,1143.81678 994.459776,1138.86039 1002.17516,1133.82891 C1011.48008,1127.7634 1014.80952,1118.85384 1011.11078,1109.92309 C1008.15254,1102.78505 1000.0907,1098.81647 989.900596,1102.67722 C978.16285,1107.11948 968.414391,1101.98787 957.799783,1099.76385 C934.655521,1094.91144 911.772055,1099.64831 888.85242,1102.51354 C866.915056,1105.25554 845.036704,1110.443 822.804278,1105.3056 C810.472601,1102.45385 804.112592,1097.00067 798.302732,1084.602 C805.989566,1083.63922 813.468905,1083.87221 820.775014,1082.73613 C837.408882,1080.1501 851.261555,1072.47097 863.606557,1061.39901 C865.976569,1059.27319 868.380847,1057.31875 868.139086,1053.48111 C867.232961,1039.01824 874.898856,1028.40071 884.302759,1018.99435 C893.539143,1009.75552 903.415145,1001.1733 913.009411,992.298404 C918.196786,987.499911 922.325747,981.890758 925.165954,975.259133 C928.219367,975.366965 928.725731,977.931809 930.062076,979.426043 C937.175919,987.372824 945.523311,989.881828 955.787652,986.321469 C964.885072,983.165478 972.51099,977.178916 981.284794,973.483768 C991.522484,969.172442 998.706762,970.947807 1001.95625,981.276505 C1007.08271,997.566733 1019.22593,1006.88066 1031.54428,1016.41025 C1043.12783,1025.37565 1055.19681,1033.76917 1064.6997,1045.15114 C1073.39165,1055.56457 1072.48171,1065.72189 1062.97311,1073.72451 C1057.99894,1077.9126 1053.07236,1076.43955 1047.72699,1075.54417 C1042.3778,1074.64686 1035.05456,1071.40036 1032.46373,1077.93956 C1029.96617,1084.23421 1037.00958,1087.69252 1041.55734,1090.93901 C1045.43312,1093.70411 1049.71627,1095.87807 1054.70948,1095.98012 C1057.65819,1096.03789 1061.73576,1096.03404 1062.24212,1093.24198 C1064.00107,1083.54871 1071.77928,1084.18222 1078.36011,1082.15461 C1086.35723,1079.69375 1090.14735,1072.16096 1088.74247,1061.91699 C1087.87442,1055.58575 1086.06407,1049.3816 1085.30262,1043.04458 C1084.23088,1034.09651 1085.74426,1033.12025 1093.80421,1036.34941 C1095.87345,1037.17933 1098.28724,1040.34688 1100.21942,1037.39307 C1102.00502,1034.66648 1099.734,1031.93026 1097.68189,1029.80251 C1086.98733,1018.70744 1073.61247,1010.99751 1062.05176,1001 C1051.43525,991.813163 1040.99958,982.505012 1034.93083,969.230209 C1031.70799,962.180737 1031.54618,954.988775 1032.22197,947.592703 C1032.65599,942.819243 1035.05837,941.767888 1039.31487,943.795501 C1047.11592,947.509904 1052.2538,954.077986 1057.04332,960.8444 C1067.46567,975.571074 1079.26623,988.349083 1094.87976,998.067378 C1107.09531,1005.67334 1114.40142,1018.91348 1121.81223,1031.27749 C1130.84683,1046.35462 1139.38268,1061.73983 1148.41347,1076.81889 C1152.95552,1084.40559 1158.00012,1091.72464 1166.46173,1096.82737 M1164.86925,703.991623 C1147.0361,704.399841 1136.14547,715.104023 1124.18119,724.731817 C1130.86862,727.695253 1132.86171,734.016862 1135.50585,739.808944 C1137.1601,743.427069 1135.12893,745.42965 1131.90038,746.01502 C1128.4948,746.633124 1124.9769,746.610018 1121.51421,746.914256 C1116.10601,747.386018 1112.7366,750.567041 1114.24617,755.806487 C1116.93219,765.130043 1113.27913,773.540884 1111.6877,782.177016 C1109.82596,792.257317 1105.04025,795.434489 1095.37364,792.78492 C1090.37663,791.413922 1087.42792,792.721376 1083.4284,795.361318 C1068.33266,805.322234 1051.32378,806.414026 1033.98557,804.509648 C1030.98546,804.178452 1027.47899,802.996159 1026.55763,799.368406 C1025.61534,795.66363 1028.53359,793.489674 1030.82556,791.369634 C1032.41508,789.898507 1034.30157,788.261782 1036.29848,787.811201 C1049.47536,784.84584 1057.38682,775.304696 1064.49305,764.910529 C1075.05817,749.442515 1081.60283,732.095155 1086.71025,714.150871 C1088.45016,708.039147 1087.52119,703.935781 1080.93656,700.284922 C1067.29709,692.721326 1066.11684,683.313046 1075.34181,670.092158 C1082.73358,659.495808 1092.58103,650.395616 1093.37103,635.93852 C1093.67561,630.387134 1099.90237,632.052742 1103.58588,631.21705 C1109.24535,629.930777 1116.85223,626.553346 1120.18358,632.073924 C1122.98,636.708744 1115.97466,641.110571 1112.82036,645.314067 C1108.22311,651.435418 1103.20706,657.273713 1099.05906,663.687749 C1095.37364,669.379702 1092.00994,676.475386 1095.58875,682.69109 C1100.18029,690.655202 1104.18933,697.910708 1104.57767,707.717579 C1104.83466,714.191308 1112.30067,713.240082 1117.10922,711.705412 C1127.96559,708.243257 1138.58782,704.024357 1149.38898,700.377349 C1154.47165,698.65975 1159.75802,697.512117 1164.86925,703.991623 M1486.94936,993.729313 C1484.10915,993.53098 1481.21754,993.611854 1478.43635,993.088102 C1465.36416,990.625312 1464.2277,988.77485 1466.05137,975.216989 C1466.94417,968.56996 1467.61805,961.874792 1468.01781,955.177698 C1468.47278,947.548634 1465.66493,941.485049 1458.80808,937.597345 C1450.52922,932.900907 1442.25607,928.185214 1434.11808,923.246155 C1414.41747,911.292285 1406.89054,892.770334 1407.79666,870.507022 C1408.40202,855.576239 1427.92939,837.853395 1442.78528,837.395112 C1449.55837,837.1833 1450.04951,841.687183 1448.97586,846.393248 C1447.12554,854.480596 1444.53471,862.390792 1442.3779,870.408819 C1440.35435,877.935829 1441.08724,883.516098 1449.69162,887.234353 C1461.97,892.541193 1470.11751,903.083628 1477.54165,914.028505 C1486.95316,927.909859 1495.35766,942.139739 1509.53966,952.587821 C1524.16521,963.361323 1520.73107,981.686867 1504.37513,989.762661 C1498.8984,992.468072 1493.13994,994.077839 1486.94936,993.729313 M1302.271,524.942444 C1302.5337,525.025243 1302.82686,525.061828 1303.04006,525.213947 C1303.15047,525.292895 1303.1143,525.579804 1303.14667,525.77236 C1302.89539,525.456568 1302.64411,525.140776 1302.39283,524.824985 C1302.39283,524.823059 1302.271,524.942444 1302.271,524.942444 M1355.68272,1595.55996 C1354.93459,1606.3893 1333.85957,1624.94976 1322.99559,1625.08455 C1319.6928,1625.12499 1318.95229,1623.49982 1319.70993,1620.99467 C1322.18465,1612.78794 1323.21831,1604.06515 1327.98689,1596.66138 C1333.16665,1588.62025 1341.07621,1587.14142 1349.61587,1588.00407 C1353.9371,1588.44309 1356.35851,1591.2987 1355.68272,1595.55996 M1273.95985,949.042354 C1283.36375,928.49279 1295.85533,921.601215 1319.5307,924.917027 C1335.49069,927.150675 1350.19238,932.990895 1361.47897,945.370313 C1372.33153,957.272193 1369.77306,972.503364 1355.95465,980.286473 C1353.64746,981.5843 1351.91135,981.393669 1349.81356,980.298026 C1334.77112,972.451374 1319.20709,973.552793 1303.58404,977.879524 C1286.20967,982.68957 1268.99519,988.110019 1251.55229,992.648561 C1241.14708,995.357822 1230.78565,994.558715 1221.44457,988.223627 C1216.66837,984.982911 1214.77808,981.786483 1218.13417,975.588109 C1227.50571,958.273484 1233.33841,939.87862 1232.0744,919.660251 C1231.80028,915.258424 1234.10367,910.995236 1236.33281,907.078649 C1237.84429,904.427155 1239.8964,903.227532 1242.38443,905.765418 C1246.43534,909.897668 1251.37906,909.566471 1256.54549,909.472119 C1267.07824,909.283414 1269.20079,911.836705 1267.4209,922.837423 C1265.898,932.26496 1264.97093,941.313161 1273.95985,949.042354 M856.81122,786.55878 C856.455242,792.362414 853.260961,796.758465 849.611713,800.817543 C839.149395,812.457547 826.153353,820.229102 811.721979,825.699615 C808.729482,826.835695 804.844185,828.073829 802.8035,825.383823 C800.437295,822.268269 803.72295,819.091097 805.809322,817.142431 C813.686519,809.786796 815.569203,800.201364 816.450581,790.203863 C817.139693,782.384168 821.55039,778.771819 828.57286,776.131878 C836.737503,773.064463 844.243493,767.636312 852.105461,776.468851 C854.734366,779.422658 857.060595,782.312922 856.81122,786.55878 M966.29434,1046.39461 C969.827466,1032.07038 974.544647,1013.69284 983.337486,996.645871 C984.645276,994.10991 986.562226,990.557254 989.352939,991.285115 C993.331513,992.321066 992.096061,996.903896 991.483094,999.566944 C987.489291,1016.93549 990.040147,1033.6917 994.262385,1050.64817 C995.945189,1057.40111 994.793496,1064.8742 987.304639,1068.94483 C974.354284,1075.98467 966.138242,1068.90054 966.29434,1046.39461 M1422.57187,1698.50915 C1426.22492,1685.52703 1434.76839,1675.54108 1443.14433,1665.7034 C1462.23959,1643.27449 1485.46951,1625.43611 1508.37773,1607.29542 C1510.90383,1605.29477 1513.89824,1604.31273 1517.14582,1604.00272 C1524.06359,1603.34032 1525.93866,1606.29221 1523.16889,1612.48865 C1518.94094,1621.94122 1512.15642,1629.58377 1505.65745,1637.42849 C1485.45238,1661.8234 1460.29408,1679.88129 1433.13698,1695.3416 C1429.91986,1697.17281 1426.52379,1699.26589 1422.43861,1698.38013 L1422.57187,1698.50915 L1422.57187,1698.50915 Z M822.326923,635.807165 C813.134322,635.387393 805.253318,632.533715 798.729598,626.368075 C796.999204,624.735201 793.981959,622.516957 797.431326,620.279458 C807.929813,613.470682 813.261865,602.121438 821.424605,593.29275 C824.763562,589.682327 828.403291,585.902455 829.751057,594.823569 C830.112745,597.211262 832.465625,596.953238 834.249321,597.490469 C837.864303,598.578409 841.603021,599.543114 844.926748,601.274192 C854.661882,606.348039 856.169552,614.901372 848.848214,623.291032 C841.762925,631.411114 832.488468,634.988802 822.326923,635.807165 M1421.5189,1698.1764 C1421.4161,1698.46138 1421.31521,1698.75022 1421.21241,1699.0352 C1421.35899,1698.79258 1421.50557,1698.54996 1421.65025,1698.30541 C1421.65215,1698.30541 1421.5189,1698.1764 1421.5189,1698.1764 M1071.82982,485.853836 C1052.26818,489.464259 1052.26818,489.464259 1051.32588,510.138985 C1041.29759,496.573422 1034.87667,483.377567 1032.62468,468.616233 C1031.62147,462.034673 1037.26,462.329283 1040.81788,465.406326 C1045.48747,469.444223 1047.83654,467.774764 1051.45723,463.952529 C1058.70814,456.300358 1065.98569,455.999971 1071.01887,462.16176 C1073.44028,465.125195 1074.33118,468.43523 1072.70739,471.955152 C1069.24279,479.474459 1069.15332,479.434023 1071.82982,485.853836 M697.754318,481.412646 C698.822251,480.174511 699.431411,478.025588 701.780483,479.348447 C700.880069,480.438313 699.975848,481.530105 699.077337,482.621897 C698.641407,482.215604 698.199766,481.811236 697.754318,481.412646 M661.933363,457.847184 C661.782977,458.28236 661.632591,458.715611 661.482205,459.150787 C660.151571,457.947313 661.790592,458.322797 662.089461,457.983898 L661.933363,457.847184 L661.933363,457.847184 Z" id="Fill-9" fill="#B8E986" transform="translate(1054.836580, 1054.867447) rotate(-37.000000) translate(-1054.836580, -1054.867447) "></path>
                </g>
            </g>
        </g>
    </g>
</svg>