<?xml version="1.0" encoding="UTF-8" standalone="no"?>
<svg width="1400px" height="1593px" viewBox="0 0 1400 1593" version="1.1" xmlns="http://www.w3.org/2000/svg" xmlns:xlink="http://www.w3.org/1999/xlink" xmlns:sketch="http://www.bohemiancoding.com/sketch/ns">
    <!-- Generator: Sketch 3.4.2 (15857) - http://www.bohemiancoding.com/sketch -->
    <title>Rectangle-1</title>
    <desc>Created with Sketch.</desc>
    <defs></defs>
    <g id="Page-1" stroke="none" stroke-width="1" fill="none" fill-rule="evenodd" sketch:type="MSPage">
        <g id="logo" sketch:type="MSLayerGroup" fill="#7CC9BF">
            <path d="M799,396.846319 L799,200 C799,89.54305 754.228475,0 699,0 C643.771525,0 599,89.54305 599,200 L599,600.114395 C599,763.398273 545.367823,1051.08835 516.657438,1193.39668 C371.899824,1241.14365 191.850821,1302.14918 179.999998,1314 C159.999998,1334 100,1514 100,1514 C100,1514 466.31781,1382.56073 660,1318 C666.31781,1315.89406 699.053772,1290.83802 699.053772,1278 L700.247698,1272.25278 C711.756302,1218.92486 799,807.783257 799,599.261732 L799,577.617846 C820.149826,586.074367 1003.76136,659.492892 1096.55648,696.716089 C1195.11296,736.250359 1400,838 1400,838 C1400,838 1359.8,657.181818 1339.7,637.090909 C1320.32654,617.726211 834.123528,411.714149 799,396.846319 L799,396.846319 Z M1010.46753,1380.82212 C1003.80303,1371.30423 853.311444,1287.67422 770.462941,1242.08029 C738.728186,1224.61574 721.831544,1406.74071 740.030188,1416.89 C844.908671,1475.38019 1054.66564,1592.36056 1054.66564,1592.36056 C1054.66564,1592.36056 1026.74343,1404.06651 1010.46753,1380.82212 L1010.46753,1380.82212 Z M60,638 C75.7704863,622.229514 402.426269,482.104909 539.880494,423.544302 C576.744578,407.838833 575.967238,587.613105 540.478578,601.813939 C473.590152,628.579431 366.005712,671.642406 301.933853,697.355382 C203.867706,736.710765 0,838 0,838 C0,838 40,658 60,638 L60,638 Z" id="Rectangle-1" sketch:type="MSShapeGroup"></path>
        </g>
    </g>
</svg>