<?xml version="1.0" encoding="UTF-8" standalone="no"?>
<svg width="257px" height="309px" viewBox="0 0 257 309" version="1.1" xmlns="http://www.w3.org/2000/svg" xmlns:xlink="http://www.w3.org/1999/xlink" xmlns:sketch="http://www.bohemiancoding.com/sketch/ns">
    <!-- Generator: Sketch 3.4.2 (15857) - http://www.bohemiancoding.com/sketch -->
    <title>Fill 1</title>
    <desc>Created with Sketch.</desc>
    <defs></defs>
    <g id="Page-1" stroke="none" stroke-width="1" fill="none" fill-rule="evenodd" sketch:type="MSPage">
        <g id="Desktop-HD" sketch:type="MSArtboardGroup" transform="translate(-528.000000, -335.000000)" fill="#7CC9BF">
            <g id="Jett-+-Wang-+-logo" sketch:type="MSLayerGroup" transform="translate(256.000000, 335.000000)">
                <path d="M434.825412,143.486958 C433.712171,148.632716 432.499296,153.749355 431.213731,158.805823 C429.189731,166.760823 426.835731,174.542823 424.386731,182.051823 C423.139731,185.806823 421.804731,189.467823 420.443731,193.056823 C419.774731,194.848823 419.065731,196.620823 418.378731,198.366823 C417.652731,200.109823 416.930731,201.823823 416.180731,203.515823 C413.253731,210.288823 410.045731,216.603823 406.673731,222.358823 C404.986731,225.229823 403.211731,227.944823 401.412731,230.509823 C399.630731,233.078823 397.748731,235.449823 395.820731,237.649823 C392.978534,240.941655 389.932039,243.794107 386.795731,246.113823 C378.897731,252.740823 367.122731,258.113823 360.494731,258.113823 L313.494731,258.113823 C300.505731,258.113823 307.897731,252.740823 315.795731,246.113823 L325.883731,237.648823 C333.782731,231.021823 345.557731,225.648823 352.185731,225.648823 L375.742662,225.648823 C375.899683,225.305705 376.054676,224.949139 376.204731,224.572823 C377.001731,222.727823 377.743731,220.609823 378.524731,218.346823 C379.301731,216.083823 380.023731,213.608823 380.732731,210.975823 C381.467731,208.358823 382.164731,205.575823 382.805731,202.640823 C383.456731,199.715823 384.138731,196.672823 384.728731,193.490823 C385.323731,190.316823 385.908731,187.027823 386.490731,183.656823 C387.079731,180.290823 387.545731,176.793823 388.090731,173.261823 C389.155731,166.177823 390.044731,158.787823 390.906731,151.248823 C391.791731,143.715823 392.549731,136.020823 393.281731,128.309823 C393.986731,120.594823 394.666731,112.864823 395.247731,105.235823 C395.531731,101.417823 395.813731,97.6308229 396.091731,93.8898229 C396.350731,90.1428229 396.605731,86.4398229 396.856731,82.7988229 C397.352731,75.5128229 397.773731,68.4568229 398.160731,61.7608229 C398.473731,55.0608229 399.160731,48.7438229 400.254731,42.9128229 C401.343731,37.0828229 402.751731,31.7328229 404.370731,26.9798229 C405.960731,22.2298229 407.743731,18.0568229 409.431731,14.6358229 C409.871731,13.7808229 410.287731,12.9708229 410.678731,12.2088229 C411.083731,11.4458229 411.504731,10.7298229 411.874731,10.0618229 C412.641731,8.70782286 413.325731,7.54982286 413.941731,6.61482286 C414.533731,5.67782286 415.045731,4.95982286 415.394731,4.47682286 C415.756731,3.99282286 415.944731,3.74382286 415.944731,3.74382286 C419.042731,-0.390177138 424.905731,-1.22817714 429.038731,1.86982286 C429.769731,2.41782286 430.422731,3.09082286 430.944731,3.78782286 C430.944731,3.78782286 431.129731,4.03782286 431.489731,4.52382286 C431.834731,5.00982286 432.344731,5.72982286 432.929731,6.66982286 C433.541731,7.61082286 434.218731,8.76682286 434.975731,10.1338229 C435.332731,10.8258229 435.741731,11.5708229 436.132731,12.3678229 C436.510731,13.1648229 436.912731,14.0128229 437.335731,14.9088229 C438.953731,18.4928229 440.608731,22.8238229 441.983731,27.8278229 C443.372731,32.8278229 444.482731,38.4818229 445.092731,44.6498229 C445.718731,50.8168229 445.813731,57.4958229 445.308731,64.5298229 C444.885731,71.5688229 444.305731,78.9898229 443.564731,86.6618229 C443.477535,87.5190305 443.388989,88.3794875 443.29887,89.2429701 L509.418184,144.724003 C514.495521,148.984384 520.06169,160.669331 521.85311,170.821904 L528.065966,206.060106 C529.856789,216.213961 527.192089,220.99146 522.114496,216.733301 L434.825411,143.486958 L434.825412,143.486958 L434.825412,143.486958 Z M384.589047,251.168515 C378.445003,255.273268 371.2138,258.294477 371.2138,258.294477 C369.760739,260.626887 374.201954,265.91972 376.018949,268.085132 L406.229967,304.08922 C414.579135,314.039372 413.943606,304.923073 413.943446,294.613101 L413.943571,281.444047 C413.942768,271.133309 410.489901,258.659438 406.229504,253.582095 C406.229504,253.582095 397.758049,242.459258 395.243901,242.228031 C394.288981,243.029304 390.415802,247.275738 384.589047,251.168515 L384.589047,251.168515 L384.589047,251.168515 Z M277.304367,172.655303 C271.077024,174.921871 270.206892,169.519682 275.363298,160.591661 L293.254407,129.602677 C298.40825,120.673462 307.636738,111.597804 313.864423,109.332176 L393.807133,80.235409 C393.807133,80.235409 392.369607,99.0326549 391.664264,106.023527 C390.827348,114.318451 389.14906,131.9461 389.14906,131.9461 L277.304367,172.655303 L277.304367,172.655303 L277.304367,172.655303 Z" id="Fill-1" sketch:type="MSShapeGroup"></path>
            </g>
        </g>
    </g>
</svg>