<?xml version="1.0" encoding="UTF-8" standalone="no"?>
<svg width="1196px" height="1468px" viewBox="0 0 1196 1468" version="1.1" xmlns="http://www.w3.org/2000/svg" xmlns:xlink="http://www.w3.org/1999/xlink" xmlns:sketch="http://www.bohemiancoding.com/sketch/ns">
    <!-- Generator: Sketch 3.4.2 (15857) - http://www.bohemiancoding.com/sketch -->
    <title>rainbow</title>
    <desc>Created with Sketch.</desc>
    <defs></defs>
    <g id="Page-2" stroke="none" stroke-width="1" fill="none" fill-rule="evenodd" sketch:type="MSPage">
        <g id="rainbow" sketch:type="MSArtboardGroup" stroke-width="50">
            <g id="Group" sketch:type="MSLayerGroup" transform="translate(30.000000, 30.000000)">
                <path d="M0,1438 C0,643.81453 521.942749,0 1165.79176,0 L1165.79176,0" id="Oval-18" stroke="#D0011B" sketch:type="MSShapeGroup"></path>
                <path d="M49,1437.984 C49,669.212465 549.158828,46 1166.13601,46 L1166.13601,46" id="Oval-18" stroke="#F6A623" sketch:type="MSShapeGroup"></path>
                <path d="M98,1438.00933 C98,695.18119 575.939228,93 1165.50714,93 L1165.50714,93" id="Oval-18" stroke="#F8E81C" sketch:type="MSShapeGroup"></path>
                <path d="M148,1438.076 C148,721.720706 603.719629,141 1165.87828,141 L1165.87828,141" id="Oval-18" stroke="#7ED321" sketch:type="MSShapeGroup"></path>
                <path d="M197,1438.14267 C197,748.260222 630.935708,189 1166.22253,189 L1166.22253,189" id="Oval-18" stroke="#50E3C2" sketch:type="MSShapeGroup"></path>
                <path d="M245,1438.20933 C245,774.799737 657.151786,237 1165.56678,237 L1165.56678,237" id="Oval-18" stroke="#4990E2" sketch:type="MSShapeGroup"></path>
                <path d="M294,1438.276 C294,801.339253 684.367865,285 1165.91103,285 L1165.91103,285" id="Oval-18" stroke="#BD0FE1" sketch:type="MSShapeGroup"></path>
            </g>
        </g>
    </g>
</svg>